<svg width="86" height="86" viewBox="0 0 86 86" fill="none" xmlns="http://www.w3.org/2000/svg">
<g clip-path="url(#clip0_1_15)">
<path d="M0.397003 84.23C0.397003 85.015 1.034 85.652 1.819 85.652H84.278C85.063 85.651 85.7 85.015 85.7 84.23V43C85.7 19.444 66.604 0.349 43.049 0.349H1.819C1.034 0.349 0.397003 1.045 0.397003 1.83V84.23Z" fill="url(#paint0_linear_1_15)"/>
<rect width="86" height="86" fill="#D9D9D9"/>
<rect width="86" height="86" fill="url(#paint1_linear_1_15)"/>
<rect y="71" width="86" height="15" fill="#D9D9D9"/>
<rect y="71" width="86" height="15" fill="url(#paint2_linear_1_15)"/>
<path d="M1.819 85.651H84.278C85.063 85.651 85.7 85.015 85.7 84.23V71.297H0.397003V84.23C0.397003 85.015 1.034 85.651 1.819 85.651Z" fill="url(#paint3_linear_1_15)"/>
<path opacity="0.1" d="M10.945 22.887H75.243V20.944H10.945V22.887Z" fill="black"/>
<path opacity="0.1" d="M10.945 12.887H75.243V10.944H10.945V12.887Z" fill="black"/>
<path opacity="0.1" d="M10.945 32.379H75.243V30.436H10.945V32.379Z" fill="black"/>
<path opacity="0.1" d="M10.945 41.799H75.243V39.856H10.945V41.799Z" fill="black"/>
<path opacity="0.1" d="M10.945 61.46H75.243V59.517H10.945V61.46Z" fill="black"/>
<path opacity="0.1" d="M10.945 51.144H75.243V49.201H10.945V51.144Z" fill="black"/>
<path d="M5.8297 69.647C5.8297 69.1067 6.2245 68.6288 7.0141 68.2132C7.8245 67.7768 8.46867 67.5586 8.9466 67.5586C9.25829 67.5586 9.49726 67.7664 9.66349 68.182L10.5674 70.395C10.7752 70.9145 10.983 71.1742 11.1908 71.1742C11.357 71.1742 11.6167 70.8626 11.97 70.2392C13.7155 67.2885 15.544 64.4625 17.4557 61.7612C19.3674 59.0391 20.9258 57.1378 22.131 56.0573C22.6505 55.5794 23.3777 55.2157 24.3128 54.9664C25.2479 54.6962 26.1829 54.5612 27.118 54.5612H27.2427V55.0599C24.9154 57.5326 22.2245 60.8989 19.1699 65.1589C16.1153 69.4186 13.7465 73.1069 12.0634 76.2239C11.8971 76.5356 11.6686 76.733 11.3777 76.8161C11.0867 76.92 10.5569 76.9719 9.78805 76.9719C9.14389 76.9719 8.72829 76.9408 8.54125 76.8784C8.35421 76.8161 8.19836 76.6602 8.07371 76.4109C7.49189 75.268 6.97242 74.0212 6.51531 72.6706C6.05816 71.2991 5.8297 70.2911 5.8297 69.647Z" fill="#6F7175" fill-opacity="0.50196"/>
<path d="M5.8297 37.647C5.8297 37.1067 6.2245 36.6288 7.0141 36.2132C7.8245 35.7768 8.46867 35.5587 8.9466 35.5587C9.25829 35.5587 9.49726 35.7664 9.66349 36.182L10.5674 38.395C10.7752 38.9145 10.983 39.1743 11.1908 39.1743C11.357 39.1743 11.6167 38.8626 11.97 38.2392C13.7155 35.2885 15.544 32.4625 17.4557 29.7612C19.3674 27.0391 20.9258 25.1378 22.131 24.0573C22.6505 23.5794 23.3777 23.2157 24.3128 22.9664C25.2479 22.6962 26.1829 22.5612 27.118 22.5612H27.2427V23.0599C24.9154 25.5326 22.2245 28.8989 19.1699 33.1589C16.1153 37.4186 13.7465 41.1069 12.0634 44.2239C11.8971 44.5356 11.6686 44.733 11.3777 44.8161C11.0867 44.92 10.5569 44.9719 9.78805 44.9719C9.14389 44.9719 8.72829 44.9408 8.54125 44.8784C8.35421 44.8161 8.19836 44.6602 8.07371 44.4109C7.49189 43.268 6.97242 42.0212 6.51531 40.6706C6.05816 39.2991 5.8297 38.2911 5.8297 37.647Z" fill="#6F7175" fill-opacity="0.50196"/>
<path d="M23.35 7.1239C23.4651 7.1239 23.6148 7.21602 23.7991 7.40026C23.9948 7.5845 24.1963 7.82631 24.4036 8.1257C24.7375 7.53844 25.0024 7.24481 25.1981 7.24481C25.3709 7.24481 25.6069 7.40026 25.9063 7.71116C26.0905 7.90691 26.1827 8.1257 26.1827 8.36751C26.1827 8.67841 26.056 8.96628 25.8027 9.23113C23.4076 11.8335 21.0816 14.695 18.8247 17.8155C19.7574 20.0955 21.0471 22.6115 22.6937 25.3635C22.8319 25.5938 22.9009 25.7781 22.9009 25.9163C22.9009 26.1811 22.7282 26.4574 22.3828 26.7453L21.8301 27.1253C21.8761 27.2635 21.8991 27.4477 21.8991 27.678C21.8991 28.0235 21.7725 28.2883 21.5192 28.4726C21.2198 28.6798 21.001 28.7835 20.8628 28.7835C20.5634 28.7835 20.2986 28.6338 20.0683 28.3344C18.6865 26.5611 17.2586 24.4769 15.7848 22.0818C13.8042 24.6611 11.5358 28.1041 8.97948 32.4108C8.611 33.0326 7.9892 33.3435 7.11408 33.3435C6.69954 33.3435 6.46925 33.1017 6.42319 32.6181C5.83593 32.2956 5.5423 31.7832 5.5423 31.0809C5.5423 30.1597 5.60563 29.5206 5.7323 29.1637C5.78987 29.0024 5.97411 28.68 6.28502 28.1964C8.63408 24.5347 11.1213 21.1723 13.7467 18.1094C12.3419 14.7701 11.4092 12.1965 10.9486 10.3887C10.845 9.98568 10.7932 9.72659 10.7932 9.61144C10.7932 9.45023 10.8968 9.21994 11.1041 8.92055C11.3229 8.62116 11.5244 8.47147 11.7086 8.47147C11.8813 8.47147 12.1001 8.63844 12.3649 8.97237C12.4686 8.77662 12.5952 8.60965 12.7449 8.47147C12.9522 8.28723 13.217 8.19511 13.5395 8.19511C13.9079 8.19511 14.1498 8.36783 14.2649 8.71328C14.8867 10.6478 15.7043 12.4902 16.7176 14.2405C18.3527 12.1217 20.3448 9.88785 22.6938 7.53878C22.9702 7.26242 23.1888 7.1239 23.35 7.1239Z" fill="#9FA1A3" fill-opacity="0.50196"/>
<path d="M5.8297 53.238C5.8297 52.6977 6.2245 52.2198 7.0141 51.8042C7.8245 51.3678 8.46867 51.1497 8.9466 51.1497C9.25829 51.1497 9.49726 51.3574 9.66349 51.773L10.5674 53.986C10.7752 54.5055 10.983 54.7653 11.1908 54.7653C11.357 54.7653 11.6167 54.4536 11.97 53.8302C13.7155 50.8795 15.544 48.0535 17.4557 45.3522C19.3674 42.6301 20.9258 40.7288 22.131 39.6483C22.6505 39.1704 23.3777 38.8067 24.3128 38.5574C25.2479 38.2872 26.1829 38.1522 27.118 38.1522H27.2427V38.6509C24.9154 41.1236 22.2245 44.4899 19.1699 48.7499C16.1153 53.0096 13.7465 56.6979 12.0634 59.8149C11.8971 60.1266 11.6686 60.324 11.3777 60.4071C11.0867 60.511 10.5569 60.5629 9.78805 60.5629C9.14389 60.5629 8.72829 60.5318 8.54125 60.4694C8.35421 60.4071 8.19836 60.2512 8.07371 60.0019C7.49189 58.859 6.97242 57.6122 6.51531 56.2616C6.05816 54.8901 5.8297 53.8821 5.8297 53.238Z" fill="#6F7175" fill-opacity="0.50196"/>
</g>
<defs>
<linearGradient id="paint0_linear_1_15" x1="73.215" y1="12.848" x2="0.820995" y2="85.2422" gradientUnits="userSpaceOnUse">
<stop stop-color="#F5E7B8"/>
<stop offset="0.9951" stop-color="#E6D695"/>
</linearGradient>
<linearGradient id="paint1_linear_1_15" x1="73.413" y1="12.6011" x2="0.427463" y2="85.5868" gradientUnits="userSpaceOnUse">
<stop stop-color="#F5E7B8"/>
<stop offset="0.9951" stop-color="#E6D695"/>
</linearGradient>
<linearGradient id="paint2_linear_1_15" x1="67.9084" y1="52.2463" x2="16.3048" y2="102.031" gradientUnits="userSpaceOnUse">
<stop stop-color="#00A89A"/>
<stop offset="1" stop-color="#00CFBD"/>
</linearGradient>
<linearGradient id="paint3_linear_1_15" x1="67.755" y1="53.351" x2="18.342" y2="102.764" gradientUnits="userSpaceOnUse">
<stop stop-color="#00A89A"/>
<stop offset="1" stop-color="#00CFBD"/>
</linearGradient>
<clipPath id="clip0_1_15">
<rect width="86" height="86" fill="white"/>
</clipPath>
</defs>
</svg>
